<svg width="85" height="85" viewBox="0 0 85 85" fill="none" xmlns="http://www.w3.org/2000/svg">
<mask id="mask0_490_206" style="mask-type:alpha" maskUnits="userSpaceOnUse" x="0" y="0" width="85" height="85">
<rect width="85" height="85" fill="#D9D9D9"/>
</mask>
<g mask="url(#mask0_490_206)">
<path d="M29.2188 74.375L10.625 55.7812V29.2188L29.2188 10.625H55.7812L74.375 29.2188V55.7812L55.7812 74.375H29.2188ZM32.4062 57.5521L42.5 47.4583L52.5938 57.5521L57.5521 52.5938L47.4583 42.5L57.5521 32.4062L52.5938 27.4479L42.5 37.5417L32.4062 27.4479L27.4479 32.4062L37.5417 42.5L27.4479 52.5938L32.4062 57.5521ZM32.2292 67.2917H52.7708L67.2917 52.7708V32.2292L52.7708 17.7083H32.2292L17.7083 32.2292V52.7708L32.2292 67.2917Z" fill="#E30211"/>
</g>
</svg>
