<svg width="85" height="85" viewBox="0 0 85 85" fill="none" xmlns="http://www.w3.org/2000/svg">
<mask id="mask0_490_150" style="mask-type:alpha" maskUnits="userSpaceOnUse" x="0" y="0" width="85" height="85">
<rect width="85" height="85" fill="#D9D9D9"/>
</mask>
<g mask="url(#mask0_490_150)">
<path d="M3.54175 74.3754L42.5001 7.08374L81.4584 74.3754H3.54175ZM15.7605 67.2921H69.2397L42.5001 21.2504L15.7605 67.2921ZM45.0235 62.7322C45.7023 62.0534 46.0417 61.2122 46.0417 60.2087C46.0417 59.2053 45.7023 58.3641 45.0235 57.6853C44.3447 57.0065 43.5036 56.6671 42.5001 56.6671C41.4966 56.6671 40.6555 57.0065 39.9766 57.6853C39.2978 58.3641 38.9584 59.2053 38.9584 60.2087C38.9584 61.2122 39.2978 62.0534 39.9766 62.7322C40.6555 63.411 41.4966 63.7504 42.5001 63.7504C43.5036 63.7504 44.3447 63.411 45.0235 62.7322ZM38.9584 53.1254H46.0417V35.4171H38.9584V53.1254Z" fill="#FFA808"/>
</g>
</svg>
