<svg width="17" height="19" viewBox="0 0 17 19" fill="none" xmlns="http://www.w3.org/2000/svg">
<path d="M6.8834 18.1601C8.18823 18.5414 9.56972 17.8374 9.96836 16.5872L5.24186 15.206C4.84323 16.4562 5.57857 17.7788 6.8834 18.1601ZM16.5288 15.1905C16.0492 14.2477 15.0659 12.7529 16.2195 9.1348C17.0957 6.38673 15.7844 3.5987 13.2427 2.26592L13.4777 1.52885C13.6769 0.903906 13.3095 0.24249 12.6571 0.0518345C12.0047 -0.138821 11.3141 0.213401 11.1148 0.838348L10.8798 1.57541C7.99388 1.32206 5.27981 2.93377 4.4036 5.68184C3.24999 9.29996 1.56233 10.0142 0.614481 10.5399C0.320087 10.7032 0.134875 10.9472 0.0515825 11.2148C-0.129293 11.796 0.170247 12.4867 0.876598 12.6931L15.0553 16.8365C15.7617 17.043 16.4134 16.6303 16.6021 16.0513C16.6891 15.7848 16.6778 15.4831 16.5288 15.1905Z" fill="#0E5CAB"/>
</svg>
