<svg width="22" height="25" viewBox="0 0 22 25" fill="none" xmlns="http://www.w3.org/2000/svg">
<path d="M21.6061 4.50155L10.803 0L0 4.50155V11.2539C0 17.4998 4.60929 23.3406 10.803 24.7585C13.5638 24.1283 16.0005 22.6203 17.861 20.5834L14.116 17.0721C11.7873 18.5239 8.61842 18.2763 6.56584 16.3519C4.22519 14.1574 4.22519 10.5899 6.56584 8.3954C8.9065 6.20089 12.7116 6.20089 15.0522 8.3954C17.1048 10.3198 17.3569 13.2908 15.8204 15.4741L19.3014 18.7377C20.7538 16.532 21.6061 13.9323 21.6061 11.2539V4.50155Z" fill="#259DCF"/>
<path d="M10.8032 15.7553C12.7919 15.7553 14.4042 14.2437 14.4042 12.3791C14.4042 10.5145 12.7919 9.00293 10.8032 9.00293C8.81438 9.00293 7.20215 10.5145 7.20215 12.3791C7.20215 14.2437 8.81438 15.7553 10.8032 15.7553Z" fill="#259DCF"/>
</svg>
