<svg width="19" height="26" viewBox="0 0 19 26" fill="none" xmlns="http://www.w3.org/2000/svg">
<path d="M5.9375 13H13.0625C13.399 13 13.6812 12.8752 13.9092 12.6256C14.1364 12.3769 14.25 12.0683 14.25 11.7C14.25 11.3317 14.1364 11.0227 13.9092 10.7731C13.6812 10.5244 13.399 10.4 13.0625 10.4H5.9375C5.60104 10.4 5.31921 10.5244 5.092 10.7731C4.864 11.0227 4.75 11.3317 4.75 11.7C4.75 12.0683 4.864 12.3769 5.092 12.6256C5.31921 12.8752 5.60104 13 5.9375 13ZM5.9375 7.8H13.0625C13.399 7.8 13.6812 7.67563 13.9092 7.4269C14.1364 7.1773 14.25 6.86833 14.25 6.5C14.25 6.13167 14.1364 5.8227 13.9092 5.5731C13.6812 5.32437 13.399 5.2 13.0625 5.2H5.9375C5.60104 5.2 5.31921 5.32437 5.092 5.5731C4.864 5.8227 4.75 6.13167 4.75 6.5C4.75 6.86833 4.864 7.1773 5.092 7.4269C5.31921 7.67563 5.60104 7.8 5.9375 7.8ZM18.9406 24.0175L14.1312 17.16C13.7948 16.6617 13.3792 16.2769 12.8844 16.0056C12.3896 15.7352 11.8552 15.6 11.2812 15.6H0V2.6C0 1.885 0.23275 1.2727 0.69825 0.7631C1.16296 0.254367 1.72187 0 2.375 0H16.625C17.2781 0 17.8374 0.254367 18.3029 0.7631C18.7676 1.2727 19 1.885 19 2.6V23.4C19 23.5083 18.9953 23.6115 18.9858 23.7094C18.9755 23.8065 18.9604 23.9092 18.9406 24.0175ZM2.375 26C1.72187 26 1.16296 25.7456 0.69825 25.2369C0.23275 24.7273 0 24.115 0 23.4V18.2H11.2812C11.4792 18.2 11.6624 18.249 11.8311 18.3469C11.9989 18.444 12.1422 18.5792 12.2609 18.7525L17.2484 25.9025C17.1495 25.9458 17.0458 25.9731 16.9373 25.9844C16.8281 25.9948 16.724 26 16.625 26H2.375Z" fill="#259DCF"/>
</svg>
