<svg width="21" height="24" viewBox="0 0 21 24" fill="none" xmlns="http://www.w3.org/2000/svg">
<path d="M18.7895 19.6364H6.63158C6.02368 19.6364 5.50347 19.4229 5.07095 18.996C4.63768 18.5684 4.42105 18.0545 4.42105 17.4545V2.18182C4.42105 1.58182 4.63768 1.068 5.07095 0.640364C5.50347 0.213455 6.02368 0 6.63158 0H13.4566C13.7513 0 14.0324 0.0545454 14.2999 0.163636C14.5666 0.272727 14.8013 0.427273 15.0039 0.627273L20.3645 5.91818C20.5671 6.11818 20.7237 6.34982 20.8342 6.61309C20.9447 6.87709 21 7.15455 21 7.44545V17.4545C21 18.0545 20.7837 18.5684 20.3512 18.996C19.9179 19.4229 19.3974 19.6364 18.7895 19.6364ZM2.21053 24C1.60263 24 1.08242 23.7865 0.649895 23.3596C0.216632 22.932 0 22.4182 0 21.8182V7.63636C0 7.32727 0.106105 7.068 0.318316 6.85855C0.52979 6.64982 0.792105 6.54545 1.10526 6.54545C1.41842 6.54545 1.68111 6.64982 1.89332 6.85855C2.10479 7.068 2.21053 7.32727 2.21053 7.63636V21.8182H13.2632C13.5763 21.8182 13.839 21.9229 14.0512 22.1324C14.2627 22.3411 14.3684 22.6 14.3684 22.9091C14.3684 23.2182 14.2627 23.4771 14.0512 23.6858C13.839 23.8953 13.5763 24 13.2632 24H2.21053ZM14.3684 7.63636H18.7895L13.2632 2.18182V6.54545C13.2632 6.85455 13.3693 7.11382 13.5815 7.32327C13.7929 7.532 14.0553 7.63636 14.3684 7.63636Z" fill="#259DCF"/>
</svg>
