<svg width="23" height="23" viewBox="0 0 23 23" fill="none" xmlns="http://www.w3.org/2000/svg">
<path d="M19.1667 16.257C18.1956 16.257 17.3267 16.6034 16.6622 17.1461L7.55167 12.3544C7.61556 12.0889 7.66667 11.8233 7.66667 11.5462C7.66667 11.2691 7.61556 11.0035 7.55167 10.738L16.56 5.99247C17.25 6.56978 18.1572 6.92771 19.1667 6.92771C21.2878 6.92771 23 5.38052 23 3.46386C23 1.54719 21.2878 0 19.1667 0C17.0456 0 15.3333 1.54719 15.3333 3.46386C15.3333 3.74096 15.3844 4.00653 15.4483 4.27209L6.44 9.01757C5.75 8.44026 4.84278 8.08233 3.83333 8.08233C1.71222 8.08233 0 9.62952 0 11.5462C0 13.4629 1.71222 15.01 3.83333 15.01C4.84278 15.01 5.75 14.6521 6.44 14.0748L15.5378 18.878C15.4739 19.1205 15.4356 19.3745 15.4356 19.6285C15.4356 21.4874 17.1094 23 19.1667 23C21.2239 23 22.8978 21.4874 22.8978 19.6285C22.8978 17.7696 21.2239 16.257 19.1667 16.257Z" fill="#259DCF"/>
</svg>
