<svg width="72" height="67" viewBox="0 0 72 67" fill="none" xmlns="http://www.w3.org/2000/svg">
<path d="M28.7445 31.1765C36.682 31.1765 43.1166 24.1974 43.1166 15.5882C43.1166 6.97909 36.682 0 28.7445 0C20.807 0 14.3723 6.97909 14.3723 15.5882C14.3723 24.1974 20.807 31.1765 28.7445 31.1765Z" fill="white"/>
<path d="M31.1517 35.1512C30.3612 35.1122 29.5707 35.0732 28.7443 35.0732C20.0492 35.0732 11.9289 37.6843 4.99433 42.1659C1.83245 44.1924 0 48.0115 0 52.0254V62.3527H33.2716C30.4331 57.949 28.7443 52.571 28.7443 46.7644C28.7443 42.5946 29.6426 38.6975 31.1517 35.1512Z" fill="white"/>
<path d="M67.3693 46.7646C67.3693 45.9072 67.2615 45.1278 67.1537 44.3094L71.2498 40.3734L67.6567 33.6315L62.4468 35.5411C61.2971 34.4889 60.0036 33.6705 58.5664 33.0859L57.4884 27.2793H50.3024L49.2244 33.0859C47.7872 33.6705 46.4937 34.4889 45.344 35.5411L40.1341 33.6315L36.541 40.3734L40.6371 44.3094C40.5293 45.1278 40.4215 45.9072 40.4215 46.7646C40.4215 47.6219 40.5293 48.4014 40.6371 49.2197L36.541 53.1558L40.1341 59.8977L45.344 57.9881C46.4937 59.0403 47.7872 59.8587 49.2244 60.4433L50.3024 66.2499H57.4884L58.5664 60.4433C60.0036 59.8587 61.2971 59.0403 62.4468 57.9881L67.6567 59.8977L71.2498 53.1558L67.1537 49.2197C67.2615 48.4014 67.3693 47.6219 67.3693 46.7646ZM53.8954 54.5587C49.9431 54.5587 46.7093 51.0514 46.7093 46.7646C46.7093 42.4778 49.9431 38.9705 53.8954 38.9705C57.8477 38.9705 61.0815 42.4778 61.0815 46.7646C61.0815 51.0514 57.8477 54.5587 53.8954 54.5587Z" fill="white"/>
</svg>
