<svg width="57" height="53" viewBox="0 0 57 53" fill="none" xmlns="http://www.w3.org/2000/svg">
<path d="M22.9955 24.9412C29.3456 24.9412 34.4933 19.3579 34.4933 12.4706C34.4933 5.58327 29.3456 0 22.9955 0C16.6455 0 11.4978 5.58327 11.4978 12.4706C11.4978 19.3579 16.6455 24.9412 22.9955 24.9412Z" fill="#259DCF"/>
<path d="M24.9213 28.1209C24.289 28.0898 23.6566 28.0586 22.9955 28.0586C16.0393 28.0586 9.54312 30.1474 3.99546 33.7327C1.46596 35.3539 0 38.4092 0 41.6204V49.8821H26.6172C24.3464 46.3592 22.9955 42.0568 22.9955 37.4115C22.9955 34.0757 23.7141 30.958 24.9213 28.1209Z" fill="#259DCF"/>
<path d="M53.8955 37.4117C53.8955 36.7258 53.8093 36.1023 53.7231 35.4476L56.9999 32.2988L54.1255 26.9053L49.9576 28.4329C49.0377 27.5911 48.003 26.9364 46.8532 26.4688L45.9909 21.8235H40.242L39.3797 26.4688C38.2299 26.9364 37.1951 27.5911 36.2753 28.4329L32.1073 26.9053L29.2329 32.2988L32.5098 35.4476C32.4235 36.1023 32.3373 36.7258 32.3373 37.4117C32.3373 38.0976 32.4235 38.7211 32.5098 39.3758L29.2329 42.5247L32.1073 47.9182L36.2753 46.3905C37.1951 47.2323 38.2299 47.887 39.3797 48.3547L40.242 53H45.9909L46.8532 48.3547C48.003 47.887 49.0377 47.2323 49.9576 46.3905L54.1255 47.9182L56.9999 42.5247L53.7231 39.3758C53.8093 38.7211 53.8955 38.0976 53.8955 37.4117ZM43.1164 43.647C39.9545 43.647 37.3676 40.8411 37.3676 37.4117C37.3676 33.9823 39.9545 31.1764 43.1164 31.1764C46.2783 31.1764 48.8653 33.9823 48.8653 37.4117C48.8653 40.8411 46.2783 43.647 43.1164 43.647Z" fill="#259DCF"/>
</svg>
