<svg width="24" height="21" viewBox="0 0 24 21" fill="none" xmlns="http://www.w3.org/2000/svg">
<path d="M13.3333 0H10.6667V11.6667H13.3333V0ZM19.7733 2.53167L17.88 4.18833C19.9867 5.67 21.3333 7.945 21.3333 10.5C21.3333 15.015 17.16 18.6667 12 18.6667C6.84 18.6667 2.66667 15.015 2.66667 10.5C2.66667 7.945 4.01333 5.67 6.10667 4.17667L4.22667 2.53167C1.64 4.45667 0 7.30333 0 10.5C0 16.2983 5.37333 21 12 21C18.6267 21 24 16.2983 24 10.5C24 7.30333 22.36 4.45667 19.7733 2.53167Z" fill="#FF8088"/>
</svg>
