<svg width="23" height="23" viewBox="0 0 23 23" fill="none" xmlns="http://www.w3.org/2000/svg">
<path d="M11.5 0C5.152 0 0 5.152 0 11.5C0 17.848 5.152 23 11.5 23C17.848 23 23 17.848 23 11.5C23 5.152 17.848 0 11.5 0ZM12.65 19.55H10.35V17.25H12.65V19.55ZM15.0305 10.6375L13.9955 11.6955C13.1675 12.535 12.65 13.225 12.65 14.95H10.35V14.375C10.35 13.11 10.8675 11.96 11.6955 11.1205L13.1215 9.6715C13.547 9.2575 13.8 8.6825 13.8 8.05C13.8 6.785 12.765 5.75 11.5 5.75C10.235 5.75 9.2 6.785 9.2 8.05H6.9C6.9 5.5085 8.9585 3.45 11.5 3.45C14.0415 3.45 16.1 5.5085 16.1 8.05C16.1 9.062 15.686 9.982 15.0305 10.6375Z" fill="#259DCF"/>
</svg>
