<svg width="31" height="31" viewBox="0 0 31 31" fill="none" xmlns="http://www.w3.org/2000/svg">
<path d="M0 13.7778H13.7778V0H0V13.7778ZM3.44444 3.44444H10.3333V10.3333H3.44444V3.44444Z" fill="white"/>
<path d="M0 30.9999H13.7778V17.2222H0V30.9999ZM3.44444 20.6666H10.3333V27.5555H3.44444V20.6666Z" fill="white"/>
<path d="M17.2222 0V13.7778H31V0H17.2222ZM27.5555 10.3333H20.6666V3.44444H27.5555V10.3333Z" fill="white"/>
<path d="M31 27.5557H27.5555V31.0001H31V27.5557Z" fill="white"/>
<path d="M20.6666 17.2222H17.2222V20.6666H20.6666V17.2222Z" fill="white"/>
<path d="M24.1111 20.6667H20.6667V24.1112H24.1111V20.6667Z" fill="white"/>
<path d="M20.6666 24.1111H17.2222V27.5555H20.6666V24.1111Z" fill="white"/>
<path d="M24.1111 27.5557H20.6667V31.0001H24.1111V27.5557Z" fill="white"/>
<path d="M27.5556 24.1111H24.1111V27.5555H27.5556V24.1111Z" fill="white"/>
<path d="M27.5556 17.2222H24.1111V20.6666H27.5556V17.2222Z" fill="white"/>
<path d="M31 20.6667H27.5555V24.1112H31V20.6667Z" fill="white"/>
</svg>
