<svg width="20" height="20" viewBox="0 0 20 20" fill="none" xmlns="http://www.w3.org/2000/svg">
<path d="M1 5C0.716667 5 0.479333 4.90433 0.288 4.713C0.0960001 4.521 0 4.28333 0 4V1C0 0.716667 0.0960001 0.479 0.288 0.287C0.479333 0.0956666 0.716667 0 1 0H4C4.28333 0 4.521 0.0956666 4.713 0.287C4.90433 0.479 5 0.716667 5 1C5 1.28333 4.90433 1.52067 4.713 1.712C4.521 1.904 4.28333 2 4 2H2V4C2 4.28333 1.90433 4.521 1.713 4.713C1.521 4.90433 1.28333 5 1 5ZM1 20C0.716667 20 0.479333 19.904 0.288 19.712C0.0960001 19.5207 0 19.2833 0 19V16C0 15.7167 0.0960001 15.4793 0.288 15.288C0.479333 15.096 0.716667 15 1 15C1.28333 15 1.521 15.096 1.713 15.288C1.90433 15.4793 2 15.7167 2 16V18H4C4.28333 18 4.521 18.096 4.713 18.288C4.90433 18.4793 5 18.7167 5 19C5 19.2833 4.90433 19.5207 4.713 19.712C4.521 19.904 4.28333 20 4 20H1ZM16 20C15.7167 20 15.4793 19.904 15.288 19.712C15.096 19.5207 15 19.2833 15 19C15 18.7167 15.096 18.4793 15.288 18.288C15.4793 18.096 15.7167 18 16 18H18V16C18 15.7167 18.096 15.4793 18.288 15.288C18.4793 15.096 18.7167 15 19 15C19.2833 15 19.5207 15.096 19.712 15.288C19.904 15.4793 20 15.7167 20 16V19C20 19.2833 19.904 19.5207 19.712 19.712C19.5207 19.904 19.2833 20 19 20H16ZM19 5C18.7167 5 18.4793 4.90433 18.288 4.713C18.096 4.521 18 4.28333 18 4V2H16C15.7167 2 15.4793 1.904 15.288 1.712C15.096 1.52067 15 1.28333 15 1C15 0.716667 15.096 0.479 15.288 0.287C15.4793 0.0956666 15.7167 0 16 0H19C19.2833 0 19.5207 0.0956666 19.712 0.287C19.904 0.479 20 0.716667 20 1V4C20 4.28333 19.904 4.521 19.712 4.713C19.5207 4.90433 19.2833 5 19 5ZM15.5 15.5H17V17H15.5V15.5ZM15.5 12.5H17V14H15.5V12.5ZM14 14H15.5V15.5H14V14ZM12.5 15.5H14V17H12.5V15.5ZM11 14H12.5V15.5H11V14ZM14 11H15.5V12.5H14V11ZM12.5 12.5H14V14H12.5V12.5ZM11 11H12.5V12.5H11V11ZM17 3V9H11V3H17ZM9 11V17H3V11H9ZM9 3V9H3V3H9ZM7.5 15.5V12.5H4.5V15.5H7.5ZM7.5 7.5V4.5H4.5V7.5H7.5ZM15.5 7.5V4.5H12.5V7.5H15.5Z" fill="#444444"/>
</svg>
