<svg width="36" height="46" viewBox="0 0 36 46" fill="none" xmlns="http://www.w3.org/2000/svg">
<path d="M19.5746 41.9881L0 22.4136V26.4125C0 27.4722 0.419883 28.4919 1.17967 29.2317L16.7553 44.8074C18.3149 46.3669 20.8542 46.3669 22.4138 44.8074L34.8303 32.3908C36.3899 30.8312 36.3899 28.2919 34.8303 26.7324L19.5746 41.9881Z" fill="#1F2642"/>
<path d="M16.7553 34.8103C18.3149 36.3699 20.8542 36.3699 22.4138 34.8103L34.8303 22.3938C36.3899 20.8342 36.3899 18.2949 34.8303 16.7354L19.2547 1.15968C18.4949 0.419883 17.4751 0 16.4154 0H3.99889C1.7995 0 0 1.7995 0 3.99889V16.4154C0 17.4751 0.419883 18.4949 1.17967 19.2347L16.7553 34.8103ZM8.49764 5.99833C9.87726 5.99833 10.9969 7.11802 10.9969 8.49764C10.9969 9.87726 9.87726 10.9969 8.49764 10.9969C7.11802 10.9969 5.99833 9.87726 5.99833 8.49764C5.99833 7.11802 7.11802 5.99833 8.49764 5.99833Z" fill="#1F2642"/>
</svg>
