<svg width="57" height="48" viewBox="0 0 57 48" fill="none" xmlns="http://www.w3.org/2000/svg">
<path d="M32.5714 0C19.0814 0 8.14286 10.7467 8.14286 24H0L10.5586 34.3733L10.7486 34.7467L21.7143 24H13.5714C13.5714 13.68 22.0671 5.33333 32.5714 5.33333C43.0757 5.33333 51.5714 13.68 51.5714 24C51.5714 34.32 43.0757 42.6667 32.5714 42.6667C27.3329 42.6667 22.5829 40.56 19.1629 37.1733L15.3086 40.96C19.7329 45.3067 25.8129 48 32.5714 48C46.0614 48 57 37.2533 57 24C57 10.7467 46.0614 0 32.5714 0ZM29.8571 13.3333V26.6667L41.4743 33.44L43.4286 30.2133L33.9286 24.6667V13.3333H29.8571Z" fill="#1F2642"/>
</svg>
